{"title":"Starred Up 2014 WEBRIP XVID AC3 ACAB","uid":10589612,"size":1460108802,"categoryP":"video","categoryS":"hd___movies","magnet":"?xt=urn:btih:aeed85d0660e6095890d9b0c0293c0ea9e7ee795&amp;dn=Starred+Up+2014+WEBRIP+XVID+AC3+ACAB&amp;tr=udp%3A%2F%2Ftracker.openbittorrent.com%3A80&amp;tr=udp%3A%2F%2Fopen.demonii.com%3A1337&amp;tr=udp%3A%2F%2Ftracker.coppersurfer.tk%3A6969&amp;tr=udp%3A%2F%2Fexodus.desync.com%3A6969","seeders":1,"leechers":1,"uploader":"lokioddin","files":3,"time":1405785452,"description":"SilverTorrent - Clean And Verified Torrents Download\n\n==============================================================================\n\nStarred Up 2014 READNFO WEBRIP XVID AC3 ACAB\n\n\nReason For READNFO:\nSource Had A Bit Of Stutter Every Now And Again Nothing Major At All. Adjusted Colour Levels Etc Etc Anyways Enjoy....\n\nFormat                                   : AVI\nFormat/Info                              : Audio Video Interleave\nFile size                                : 1.33 GiB\nDuration                                 : 1h 45mn\nOverall bit rate                         : 1 795 Kbps\n\nVideo\nID                                       : 0\nFormat                                   : MPEG-4 Visual\nFormat profile                           : Advanced Simple@L5\nFormat settings, BVOP                    : 2\nFormat settings, QPel                    : No\nFormat settings, GMC                     : No warppoints\nFormat settings, Matrix                  : Default (H.263)\nMuxing mode                              : Packed bitstream\nCodec ID                                 : XVID\nCodec ID/Hint                            : XviD\nDuration                                 : 1h 45mn\nBit rate                                 : 1 532 Kbps\nWidth                                    : 720 pixels\nHeight                                   : 304 pixels\nDisplay aspect ratio                     : 2.35:1\nFrame rate                               : 23.976 fps\nColor space                              : YUV\nChroma subsampling                       : 4:2:0\nBit depth                                : 8 bits\nScan type                                : Progressive\nCompression mode                         : Lossy\nBits/(Pixel*Frame)                       : 0.292\nStream size                              : 1.13 GiB (85%)\nWriting library                          : XviD 1.2.1 (UTC 2008-12-04)\n\nAudio\nID                                       : 1\nFormat                                   : AC-3\nFormat/Info                              : Audio Coding 3\nMode extension                           : CM (complete main)\nFormat settings, Endianness              : Big\nCodec ID                                 : 2000\nDuration                                 : 1h 45mn\nBit rate mode                            : Constant\nBit rate                                 : 256 Kbps\nChannel(s)                               : 2 channels\nChannel positions                        : Front: L R\nSampling rate                            : 48.0 KHz\nBit depth                                : 16 bits\nCompression mode                         : Lossy\nStream size                              : 194 MiB (14%)\nAlignment                                : Aligned on interleaves\nInterleave, duration                     : 64 ms (1.53 video frames)\nInterleave, preload duration             : 192 ms\nTitle                                    : English\n &lt;a href=&quot;\nhttp://s8.postimg.org/tz8jqb8o5/image.png&quot; rel=&quot;nofollow&quot; target=&quot;_NEW&quot;&gt;\nhttp://s8.postimg.org/tz8jqb8o5/image.png&lt;/a&gt;\n &lt;a href=&quot;\nhttp://s8.postimg.org/czzlb1xgl/image.png&quot; rel=&quot;nofollow&quot; target=&quot;_NEW&quot;&gt;\nhttp://s8.postimg.org/czzlb1xgl/image.png&lt;/a&gt;\n &lt;a href=&quot;\nhttp://s8.postimg.org/5y1noutut/image.png&quot; rel=&quot;nofollow&quot; target=&quot;_NEW&quot;&gt;\nhttp://s8.postimg.org/5y1noutut/image.png&lt;/a&gt;\n\n===========================================================================\n\nSilverTorrent - Clean And Verified Torrents Download\n\n\n\n","torrent":{"xt":"urn:btih:aeed85d0660e6095890d9b0c0293c0ea9e7ee795","amp;dn":"Starred+Up+2014+WEBRIP+XVID+AC3+ACAB","amp;tr":["udp%3A%2F%2Ftracker.openbittorrent.com%3A80","udp%3A%2F%2Fopen.demonii.com%3A1337","udp%3A%2F%2Ftracker.coppersurfer.tk%3A6969","udp%3A%2F%2Fexodus.desync.com%3A6969"],"infoHash":"aeed85d0660e6095890d9b0c0293c0ea9e7ee795","infoHashBuffer":{"type":"Buffer","data":[174,237,133,208,102,14,96,149,137,13,155,12,2,147,192,234,158,126,231,149]},"announce":[],"urlList":[]}}